<?xml version="1.0" encoding="UTF-8" standalone="no"?> <svg xmlns="http://www.w3.org/2000/svg" viewBox="0 0 48 48"><title>Gym</title><g id="Gym"><path d="M29,28H19V20H29Z"/><path d="M46.342,19.553,45,18.882V29.118l1.342-.671A2.984,2.984,0,0,0,48,25.764V22.236A2.984,2.984,0,0,0,46.342,19.553Z"/><path d="M40,13V35a3,3,0,0,0,3-3V16A3,3,0,0,0,40,13Z"/><path d="M1.658,19.553,3,18.882V29.118l-1.342-.671A2.984,2.984,0,0,1,0,25.764V22.236A2.984,2.984,0,0,1,1.658,19.553Z"/><path d="M8,13V35a3,3,0,0,1-3-3V16A3,3,0,0,1,8,13Z"/><path d="M10,36V12a2,2,0,0,1,2-2h3a2,2,0,0,1,2,2V36a2,2,0,0,1-2,2H12A2,2,0,0,1,10,36Z"/><path d="M31,36V12a2,2,0,0,1,2-2h3a2,2,0,0,1,2,2V36a2,2,0,0,1-2,2H33A2,2,0,0,1,31,36Z"/></g></svg>